# xmcd
#
# Track frame offsets: 
#        150
#        15667
#        30952
#        44455
#        60267
#        76370
#        91757
#        104320
#        118352
#        137467
#        152092
#
# Disc length: 2044 seconds
#
# Revision: 0
# Processed by: cddbd v1.4PL0 Copyright (c) Steve Scherf et al.
# Submitted via: ExactAudioCopy v0.90a11
#
DISCID=7b07fa0b
DTITLE=Vern Gosdin - Time Stood Still
DYEAR=1900
DGENRE=
TTITLE0=It's Only Love Again
TTITLE1=For A Minute There
TTITLE2=I Know The Way To You By Heart
TTITLE3=Dim Lights, Thick Smoke (And Loud, Loud Music)
TTITLE4=Time Stood Still
TTITLE5=Rainbows And Roses
TTITLE6=Two Lonely Hearts (Out Of Hand)
TTITLE7=Was It Just The Wine
TTITLE8=Jesus Hold My Hand
TTITLE9=What A Price I've Paid
TTITLE10=That's It
EXTD=
EXTT0=
EXTT1=
EXTT2=
EXTT3=
EXTT4=
EXTT5=
EXTT6=
EXTT7=
EXTT8=
EXTT9=
EXTT10=
PLAYORDER=
